<?xml version="1.0" encoding="utf-8"?>
<!-- Generator: Adobe Illustrator 27.3.1, SVG Export Plug-In . SVG Version: 6.00 Build 0)  -->
<svg version="1.1" id="Layer_1" xmlns="http://www.w3.org/2000/svg" xmlns:xlink="http://www.w3.org/1999/xlink" x="0px" y="0px"
	 viewBox="0 0 140 80" style="enable-background:new 0 0 140 80;" xml:space="preserve">
<style type="text/css">
	.st0{fill:#666666;}
	.st1{fill:#838386;}
	.st2{fill:#EB2028;}
</style>
<g>
	<path class="st0" d="M4,4.48v52.4c0,0,10.44,0.17,18.58,0c8.14-0.17,10.26-6.96,10.26-10.27c0-3.31,0-34.65,0-34.65h12.56v44.92
		h8.67V11.97H67V4.48H4z M24.32,46.8c0.08,1.05-1.99,3.46-3.21,3.69c-1.22,0.23-8.08,0-8.08,0V11.44c0,0,6.71,0,8.08,0
		c1.38,0,3.21,2.02,3.21,3.23S24.24,45.74,24.32,46.8z"/>
	<polygon class="st0" points="113.74,4.35 113.74,57.03 136,57.03 136,49.81 122.16,49.81 122.16,4.35 	"/>
	<g>
		<rect x="83.57" y="27.17" class="st1" width="1.76" height="30.08"/>
		<rect x="76.13" y="34.14" class="st1" width="15.87" height="1.09"/>
		<rect x="76.13" y="41.67" class="st1" width="15.87" height="1.09"/>
		<rect x="76.13" y="49.2" class="st1" width="15.87" height="1.09"/>
	</g>
	<g>
		<path class="st0" d="M13.49,70.46c-0.2,0.16-0.4,0.28-0.6,0.35c-0.2,0.07-0.36,0.11-0.47,0.11c-0.31,0-0.61-0.12-0.9-0.35
			c-0.76,0.93-1.55,1.4-2.36,1.4c-0.59,0-1.02-0.32-1.28-0.96c-0.56,0.64-1.17,0.96-1.82,0.96c-0.42,0-0.76-0.14-1-0.41
			c-0.24-0.27-0.36-0.65-0.36-1.13c0-0.52,0.07-1.05,0.22-1.58c0.15-0.54,0.38-1.19,0.68-1.97l1.66-0.3l-0.46,1.38
			c-0.39,1.19-0.59,2.02-0.59,2.47c0,0.21,0.05,0.39,0.16,0.53c0.1,0.14,0.24,0.2,0.4,0.2c0.34,0,0.67-0.26,1.01-0.77
			c0-0.65,0.12-1.32,0.36-2.02l0.52-1.5l1.68-0.3l-0.7,2.14c-0.23,0.69-0.34,1.23-0.34,1.63c0,0.24,0.05,0.44,0.16,0.58
			c0.11,0.14,0.25,0.22,0.43,0.22c0.22,0,0.43-0.08,0.63-0.24c0.2-0.16,0.42-0.4,0.67-0.73c-0.22-0.4-0.33-0.81-0.33-1.24
			c0-0.62,0.16-1.17,0.47-1.64c0.31-0.48,0.67-0.71,1.06-0.71c0.27,0,0.41,0.2,0.41,0.61c0,0.87-0.34,1.85-1.02,2.95
			c0.21,0.19,0.43,0.29,0.67,0.29c0.28,0,0.63-0.22,1.06-0.67V70.46z"/>
		<path class="st0" d="M18.19,70.46c-0.53,0.52-1.01,0.9-1.43,1.14c-0.42,0.25-0.89,0.37-1.4,0.37c-0.57,0-1.03-0.18-1.38-0.54
			c-0.35-0.36-0.52-0.83-0.52-1.42c0-0.87,0.31-1.66,0.92-2.37c0.62-0.71,1.3-1.06,2.05-1.06c0.39,0,0.7,0.1,0.94,0.3
			c0.23,0.2,0.35,0.46,0.35,0.78c0,0.85-0.92,1.55-2.76,2.08c0.17,0.8,0.61,1.2,1.31,1.2c0.28,0,0.54-0.07,0.79-0.22
			c0.25-0.15,0.63-0.47,1.14-0.97V70.46z M14.89,69.31c1.07-0.3,1.61-0.84,1.61-1.64c0-0.4-0.15-0.59-0.44-0.59
			c-0.28,0-0.54,0.21-0.79,0.62C15.02,68.11,14.89,68.65,14.89,69.31z"/>
		<path class="st0" d="M25.02,70.46c-0.53,0.52-0.98,0.9-1.37,1.14c-0.39,0.25-0.75,0.37-1.1,0.37c-0.36,0-0.65-0.15-0.88-0.45
			c-0.22-0.3-0.34-0.69-0.34-1.18c0-0.43,0.11-0.99,0.32-1.7l0.27-0.94l-0.48,0.02l0.2-0.97l0.6-0.02l0.59-1.93l1.68-0.34
			l-0.65,2.15l0.89-0.05l-0.21,0.95l-0.97,0.07l-0.42,1.38c-0.15,0.48-0.22,0.86-0.22,1.15c0,0.19,0.05,0.35,0.15,0.47
			c0.1,0.12,0.23,0.18,0.38,0.18c0.21,0,0.43-0.07,0.64-0.2c0.21-0.13,0.52-0.41,0.92-0.84V70.46z"/>
		<path class="st0" d="M30.66,70.46c-0.21,0.19-0.42,0.32-0.62,0.39c-0.2,0.08-0.36,0.11-0.48,0.11c-0.3,0-0.6-0.12-0.9-0.35
			c-0.6,0.9-1.29,1.35-2.07,1.35c-0.49,0-0.88-0.18-1.18-0.54c-0.3-0.36-0.45-0.83-0.45-1.43c0-0.94,0.34-1.75,1.02-2.42
			c0.68-0.67,1.49-1.01,2.43-1.01c0.36,0,0.62,0.04,0.78,0.11c0.17,0.08,0.27,0.17,0.3,0.27c0.04,0.1,0.06,0.23,0.06,0.39
			c0,0.77-0.21,1.72-0.64,2.84c0.21,0.19,0.44,0.29,0.67,0.29c0.28,0,0.64-0.24,1.08-0.72V70.46z M28.58,67
			c-0.06-0.02-0.15-0.04-0.27-0.04c-0.54,0-0.97,0.28-1.28,0.84c-0.31,0.56-0.46,1.22-0.46,1.97c0,0.42,0.07,0.74,0.2,0.97
			c0.13,0.23,0.32,0.35,0.56,0.35c0.3,0,0.62-0.27,0.97-0.81c-0.39-0.49-0.59-1.01-0.59-1.57C27.71,68.05,28,67.48,28.58,67z"/>
		<path class="st0" d="M37.36,70.46c-0.55,0.52-1.02,0.9-1.39,1.14c-0.37,0.25-0.71,0.37-1.01,0.37c-0.33,0-0.59-0.13-0.76-0.39
			c-0.18-0.26-0.27-0.61-0.27-1.06c-0.46,0.5-0.87,0.87-1.24,1.1c-0.36,0.24-0.72,0.36-1.07,0.36c-0.32,0-0.57-0.13-0.77-0.39
			c-0.19-0.26-0.29-0.61-0.29-1.06c0-0.86,0.29-2.06,0.88-3.62l1.68-0.33c-0.69,1.98-1.04,3.24-1.04,3.8c0,0.4,0.15,0.59,0.45,0.59
			c0.22,0,0.49-0.17,0.81-0.52c0.32-0.35,0.52-0.65,0.6-0.91l0.82-2.63l1.71-0.34c-0.39,1.24-0.67,2.11-0.81,2.61
			c-0.15,0.5-0.22,0.86-0.22,1.06c0,0.39,0.13,0.58,0.4,0.58c0.22,0,0.54-0.2,0.97-0.59l0.53-0.49V70.46z"/>
		<path class="st0" d="M42.05,70.46c-0.54,0.52-1.03,0.9-1.47,1.14c-0.45,0.24-0.91,0.36-1.4,0.36c-0.54,0-0.99-0.17-1.35-0.52
			c-0.35-0.35-0.53-0.79-0.53-1.33c0-0.88,0.33-1.69,0.98-2.43c0.65-0.74,1.36-1.12,2.11-1.12c0.37,0,0.68,0.1,0.91,0.31
			c0.23,0.2,0.35,0.47,0.35,0.79c0,0.12-0.02,0.2-0.07,0.26c-0.04,0.06-0.13,0.12-0.25,0.17l-0.73,0.34
			c-0.09,0.04-0.15,0.06-0.19,0.06c-0.06,0-0.09-0.04-0.09-0.12c0-0.03,0.01-0.14,0.04-0.32c0.02-0.18,0.04-0.3,0.04-0.34
			c0-0.18-0.04-0.33-0.12-0.44c-0.08-0.11-0.18-0.17-0.31-0.17c-0.31,0-0.59,0.22-0.84,0.67c-0.25,0.45-0.38,0.95-0.38,1.52
			c0,0.49,0.12,0.88,0.36,1.17c0.24,0.29,0.56,0.44,0.95,0.44c0.34,0,0.66-0.1,0.96-0.29c0.3-0.19,0.64-0.49,1.02-0.88V70.46z"/>
		<path class="st0" d="M48.22,70.46c-0.99,1.01-1.81,1.52-2.45,1.52c-0.29,0-0.52-0.1-0.71-0.29c-0.19-0.19-0.28-0.43-0.28-0.73
			c0-0.49,0.19-1.19,0.58-2.09c0.21-0.49,0.31-0.8,0.31-0.95c0-0.17-0.08-0.25-0.24-0.25c-0.17,0-0.41,0.11-0.73,0.34
			c-0.32,0.22-0.65,0.53-1.01,0.92c-0.15,0.76-0.22,1.67-0.22,2.73l-1.4,0.32c-0.05-0.43-0.08-0.9-0.08-1.41
			c0-1.23,0.17-2.37,0.52-3.43s0.88-2.18,1.62-3.37c0.55-0.22,1.03-0.4,1.44-0.53c0.41-0.14,0.64-0.21,0.7-0.21
			c0.11,0,0.2,0.09,0.28,0.26c0.08,0.17,0.11,0.39,0.11,0.65c0,0.44-0.14,0.92-0.41,1.45c-0.27,0.53-0.7,1.17-1.28,1.92
			c0.56-0.32,0.93-0.52,1.11-0.6c0.18-0.08,0.37-0.12,0.57-0.12c0.21,0,0.39,0.08,0.52,0.23c0.13,0.15,0.2,0.35,0.2,0.6
			c0,0.37-0.15,0.95-0.45,1.72c-0.3,0.78-0.45,1.27-0.45,1.46c0,0.09,0.03,0.17,0.09,0.24c0.06,0.07,0.12,0.1,0.2,0.1
			c0.27,0,0.76-0.4,1.48-1.19V70.46z M43.87,67.92c1.5-1.71,2.24-2.97,2.24-3.78c0-0.25-0.07-0.37-0.21-0.37
			c-0.23,0-0.56,0.41-0.99,1.22C44.49,65.8,44.14,66.78,43.87,67.92z"/>
		<path class="st0" d="M58.14,70.46c-0.53,0.51-1.38,1.03-2.55,1.56c-0.39,1.09-0.83,1.86-1.31,2.31C53.8,74.77,53.29,75,52.76,75
			c-0.27,0-0.48-0.08-0.64-0.24c-0.16-0.16-0.24-0.37-0.24-0.64c0-0.81,0.76-1.55,2.27-2.21l0.38-1.33c-0.79,0.87-1.49,1.3-2.09,1.3
			c-0.32,0-0.58-0.13-0.78-0.39c-0.2-0.26-0.3-0.61-0.3-1.04c0-0.62,0.14-1.29,0.41-2l0.6-1.57l1.82-0.31l-0.78,1.83
			c-0.36,0.89-0.54,1.55-0.54,2c0,0.37,0.13,0.56,0.38,0.56c0.26,0,0.56-0.21,0.89-0.62c0.33-0.41,0.61-0.92,0.84-1.52l0.72-1.94
			l1.71-0.31l-1.63,4.83c0.96-0.43,1.75-0.98,2.36-1.66V70.46z M53.96,72.52c-0.52,0.23-0.91,0.48-1.19,0.76
			c-0.28,0.28-0.42,0.56-0.42,0.83c0,0.28,0.12,0.41,0.36,0.41C53.17,74.53,53.59,73.86,53.96,72.52z"/>
		<path class="st0" d="M63.78,70.46c-0.21,0.19-0.42,0.32-0.62,0.39c-0.2,0.08-0.36,0.11-0.48,0.11c-0.3,0-0.6-0.12-0.9-0.35
			c-0.6,0.9-1.29,1.35-2.07,1.35c-0.49,0-0.88-0.18-1.18-0.54c-0.3-0.36-0.45-0.83-0.45-1.43c0-0.94,0.34-1.75,1.02-2.42
			c0.68-0.67,1.49-1.01,2.43-1.01c0.36,0,0.62,0.04,0.78,0.11c0.17,0.08,0.27,0.17,0.3,0.27c0.04,0.1,0.06,0.23,0.06,0.39
			c0,0.77-0.21,1.72-0.64,2.84c0.21,0.19,0.44,0.29,0.67,0.29c0.28,0,0.64-0.24,1.08-0.72V70.46z M61.71,67
			c-0.06-0.02-0.15-0.04-0.27-0.04c-0.54,0-0.97,0.28-1.28,0.84c-0.31,0.56-0.46,1.22-0.46,1.97c0,0.42,0.07,0.74,0.2,0.97
			c0.13,0.23,0.32,0.35,0.56,0.35c0.3,0,0.62-0.27,0.97-0.81c-0.39-0.49-0.59-1.01-0.59-1.57C60.83,68.05,61.12,67.48,61.71,67z"/>
		<path class="st0" d="M70.48,70.46c-0.55,0.52-1.02,0.9-1.39,1.14c-0.37,0.25-0.71,0.37-1.01,0.37c-0.33,0-0.59-0.13-0.76-0.39
			c-0.18-0.26-0.27-0.61-0.27-1.06c-0.46,0.5-0.87,0.87-1.24,1.1c-0.36,0.24-0.72,0.36-1.07,0.36c-0.32,0-0.57-0.13-0.77-0.39
			c-0.19-0.26-0.29-0.61-0.29-1.06c0-0.86,0.29-2.06,0.88-3.62l1.68-0.33c-0.69,1.98-1.04,3.24-1.04,3.8c0,0.4,0.15,0.59,0.45,0.59
			c0.22,0,0.49-0.17,0.81-0.52c0.32-0.35,0.52-0.65,0.6-0.91l0.82-2.63l1.71-0.34c-0.39,1.24-0.67,2.11-0.81,2.61
			c-0.15,0.5-0.22,0.86-0.22,1.06c0,0.39,0.13,0.58,0.4,0.58c0.22,0,0.54-0.2,0.97-0.59l0.53-0.49V70.46z"/>
		<path class="st0" d="M75.18,70.46c-1.05,1.01-1.86,1.52-2.43,1.52c-0.26,0-0.47-0.11-0.65-0.32c-0.18-0.21-0.26-0.47-0.26-0.79
			c0-0.58,0.32-1.36,0.95-2.34c-0.31,0.16-0.65,0.27-1.02,0.33c-0.27,0.49-0.7,1.03-1.28,1.59h-0.14V69.9
			c0.33-0.33,0.62-0.69,0.89-1.08c-0.36-0.16-0.54-0.39-0.54-0.7c0-0.32,0.11-0.66,0.33-1.02c0.22-0.36,0.52-0.54,0.91-0.54
			c0.33,0,0.49,0.16,0.49,0.49c0,0.26-0.09,0.63-0.28,1.11c0.7-0.07,1.3-0.6,1.82-1.57l0.57-0.02l-0.58,1.58
			c-0.24,0.67-0.4,1.12-0.47,1.36c-0.07,0.24-0.11,0.45-0.11,0.64c0,0.17,0.04,0.31,0.12,0.41c0.08,0.1,0.19,0.15,0.33,0.15
			c0.15,0,0.3-0.05,0.43-0.15c0.14-0.1,0.45-0.38,0.93-0.84V70.46z"/>
		<path class="st0" d="M85.1,70.46c-0.6,0.59-1.06,0.99-1.38,1.2c-0.32,0.21-0.6,0.31-0.84,0.31c-0.3,0-0.53-0.14-0.71-0.43
			c-0.17-0.28-0.26-0.7-0.27-1.25c-0.34,0.55-0.72,0.96-1.12,1.25c-0.4,0.28-0.77,0.43-1.1,0.43c-0.36,0-0.67-0.17-0.94-0.5
			c-0.27-0.33-0.41-0.72-0.41-1.17c0-0.92,0.34-1.77,1.02-2.56c0.68-0.79,1.41-1.18,2.2-1.18c0.22,0,0.39,0.03,0.51,0.09
			c0.12,0.06,0.26,0.17,0.41,0.32l0.9-3.7c0.73-0.17,1.23-0.25,1.48-0.25c0.08,0,0.13,0.03,0.13,0.1c0,0.05-0.1,0.47-0.31,1.28
			c-0.84,3.23-1.26,5.18-1.26,5.85c0,0.16,0.03,0.28,0.1,0.38c0.07,0.09,0.15,0.14,0.26,0.14c0.27,0,0.71-0.34,1.32-1.03V70.46z
			 M80.56,70.78c0.41,0,0.79-0.34,1.15-1.03c0.36-0.68,0.53-1.32,0.53-1.92c0-0.24-0.06-0.44-0.17-0.58
			c-0.11-0.14-0.26-0.22-0.44-0.22c-0.39,0-0.77,0.36-1.13,1.07c-0.36,0.72-0.55,1.36-0.55,1.94c0,0.23,0.05,0.41,0.16,0.54
			C80.23,70.72,80.38,70.78,80.56,70.78z"/>
		<path class="st0" d="M89.8,70.46c-1.05,1.01-1.86,1.52-2.43,1.52c-0.26,0-0.47-0.11-0.65-0.32c-0.18-0.21-0.26-0.47-0.26-0.79
			c0-0.58,0.32-1.36,0.95-2.34c-0.31,0.16-0.65,0.27-1.02,0.33c-0.27,0.49-0.7,1.03-1.28,1.59h-0.14V69.9
			c0.33-0.33,0.62-0.69,0.89-1.08c-0.36-0.16-0.54-0.39-0.54-0.7c0-0.32,0.11-0.66,0.33-1.02c0.22-0.36,0.52-0.54,0.91-0.54
			c0.33,0,0.49,0.16,0.49,0.49c0,0.26-0.09,0.63-0.28,1.11c0.7-0.07,1.3-0.6,1.82-1.57l0.57-0.02l-0.58,1.58
			c-0.24,0.67-0.4,1.12-0.47,1.36c-0.07,0.24-0.11,0.45-0.11,0.64c0,0.17,0.04,0.31,0.12,0.41c0.08,0.1,0.19,0.15,0.33,0.15
			c0.15,0,0.3-0.05,0.43-0.15c0.14-0.1,0.45-0.38,0.93-0.84V70.46z"/>
		<path class="st0" d="M94.5,70.46c-0.53,0.52-1.01,0.9-1.43,1.14c-0.42,0.25-0.89,0.37-1.4,0.37c-0.57,0-1.03-0.18-1.38-0.54
			c-0.35-0.36-0.52-0.83-0.52-1.42c0-0.87,0.31-1.66,0.92-2.37c0.62-0.71,1.3-1.06,2.05-1.06c0.39,0,0.7,0.1,0.94,0.3
			c0.23,0.2,0.35,0.46,0.35,0.78c0,0.85-0.92,1.55-2.76,2.08c0.17,0.8,0.61,1.2,1.31,1.2c0.28,0,0.54-0.07,0.79-0.22
			c0.25-0.15,0.63-0.47,1.14-0.97V70.46z M91.2,69.31c1.07-0.3,1.61-0.84,1.61-1.64c0-0.4-0.15-0.59-0.44-0.59
			c-0.28,0-0.54,0.21-0.79,0.62C91.33,68.11,91.2,68.65,91.2,69.31z"/>
		<path class="st0" d="M101.21,70.46c-0.67,0.63-1.15,1.03-1.44,1.22c-0.29,0.19-0.57,0.28-0.83,0.28c-0.66,0-0.97-0.57-0.94-1.72
			c-0.42,0.59-0.81,1.02-1.16,1.3c-0.35,0.28-0.72,0.42-1.1,0.42c-0.37,0-0.68-0.17-0.94-0.51c-0.26-0.34-0.39-0.76-0.39-1.25
			c0-0.62,0.17-1.21,0.52-1.77c0.35-0.56,0.79-1.01,1.33-1.36c0.54-0.35,1.02-0.52,1.43-0.52c0.52,0,0.89,0.24,1.1,0.71l1.28-0.7
			h0.35l-0.55,1.81c-0.29,0.91-0.43,1.54-0.43,1.87c0,0.35,0.13,0.53,0.38,0.53c0.16,0,0.34-0.09,0.54-0.26
			c0.2-0.17,0.47-0.43,0.83-0.78V70.46z M96.61,70.8c0.42,0,0.81-0.35,1.18-1.05s0.56-1.35,0.56-1.94c0-0.23-0.05-0.41-0.16-0.54
			c-0.1-0.13-0.24-0.19-0.42-0.19c-0.42,0-0.82,0.35-1.19,1.05c-0.37,0.7-0.56,1.35-0.56,1.93c0,0.22,0.06,0.4,0.17,0.54
			C96.29,70.73,96.44,70.8,96.61,70.8z"/>
		<path class="st0" d="M110.45,70.46c-0.52,0.5-0.97,0.88-1.34,1.13c-0.37,0.25-0.74,0.38-1.09,0.38c-0.28,0-0.5-0.09-0.66-0.28
			c-0.16-0.19-0.24-0.44-0.24-0.76c0-0.44,0.11-1.01,0.34-1.69c0.23-0.68,0.34-1.1,0.34-1.25c0-0.13-0.07-0.2-0.21-0.2
			c-0.04,0-0.09,0.01-0.15,0.04c-0.06,0.03-0.13,0.07-0.21,0.12c-0.08,0.06-0.17,0.13-0.26,0.21c-0.09,0.08-0.19,0.18-0.29,0.28
			c-0.11,0.11-0.22,0.22-0.33,0.35c-0.18,0.21-0.29,0.39-0.33,0.54l-0.21,0.88l-0.38,1.46l-1.59,0.28l0.61-2.55
			c0.05-0.19,0.1-0.46,0.16-0.82c0.06-0.36,0.09-0.57,0.09-0.64c0-0.14-0.05-0.21-0.14-0.21c-0.03,0-0.07,0.01-0.13,0.04
			c-0.06,0.03-0.13,0.07-0.21,0.13c-0.09,0.07-0.19,0.14-0.3,0.23c-0.11,0.1-0.23,0.21-0.36,0.34c-0.14,0.14-0.28,0.29-0.43,0.45
			c-0.2,0.22-0.33,0.48-0.38,0.78c-0.07,0.35-0.11,0.67-0.14,0.95c-0.03,0.28-0.05,0.59-0.05,0.94l-1.39,0.33
			c-0.03-0.47-0.05-0.87-0.05-1.19c0-0.75,0.08-1.41,0.24-1.97c0.16-0.56,0.42-1.21,0.78-1.96l1.52-0.29
			c-0.27,0.67-0.48,1.32-0.63,1.95c1.13-1.29,1.99-1.93,2.59-1.93c0.22,0,0.39,0.09,0.53,0.26c0.14,0.18,0.2,0.41,0.2,0.69
			c0,0.13-0.02,0.37-0.06,0.73c0.71-0.7,1.22-1.15,1.52-1.36c0.31-0.21,0.59-0.32,0.85-0.32c0.23,0,0.42,0.09,0.57,0.27
			c0.15,0.18,0.22,0.41,0.22,0.69c0,0.44-0.12,1.01-0.37,1.7c-0.25,0.69-0.37,1.15-0.37,1.37c0,0.23,0.09,0.35,0.26,0.35
			c0.11,0,0.26-0.07,0.45-0.21c0.19-0.14,0.53-0.47,1.02-0.98V70.46z"/>
		<path class="st0" d="M112.8,70.54c-0.18,0.59-0.35,0.97-0.51,1.15c-0.15,0.18-0.38,0.27-0.69,0.27c-0.38,0-0.74-0.13-1.09-0.4
			c0.22-0.34,0.43-0.82,0.63-1.45c0.27,0.23,0.46,0.37,0.59,0.43c0.13,0.06,0.28,0.09,0.45,0.09
			C112.33,70.64,112.54,70.6,112.8,70.54z"/>
		<path class="st0" d="M115.35,70.54c-0.18,0.59-0.35,0.97-0.51,1.15c-0.15,0.18-0.38,0.27-0.69,0.27c-0.38,0-0.74-0.13-1.09-0.4
			c0.22-0.34,0.43-0.82,0.63-1.45c0.27,0.23,0.46,0.37,0.59,0.43c0.13,0.06,0.28,0.09,0.45,0.09
			C114.88,70.64,115.09,70.6,115.35,70.54z"/>
		<path class="st0" d="M117.9,70.54c-0.18,0.59-0.35,0.97-0.51,1.15c-0.15,0.18-0.38,0.27-0.69,0.27c-0.38,0-0.74-0.13-1.09-0.4
			c0.22-0.34,0.43-0.82,0.63-1.45c0.27,0.23,0.46,0.37,0.59,0.43c0.13,0.06,0.28,0.09,0.45,0.09
			C117.43,70.64,117.64,70.6,117.9,70.54z"/>
		<path class="st0" d="M120.45,70.54c-0.18,0.59-0.35,0.97-0.51,1.15c-0.15,0.18-0.38,0.27-0.69,0.27c-0.38,0-0.74-0.13-1.09-0.4
			c0.22-0.34,0.43-0.82,0.63-1.45c0.27,0.23,0.46,0.37,0.59,0.43c0.13,0.06,0.28,0.09,0.45,0.09
			C119.99,70.64,120.19,70.6,120.45,70.54z"/>
		<path class="st0" d="M123,70.54c-0.18,0.59-0.35,0.97-0.51,1.15c-0.15,0.18-0.38,0.27-0.69,0.27c-0.38,0-0.74-0.13-1.09-0.4
			c0.22-0.34,0.43-0.82,0.63-1.45c0.27,0.23,0.46,0.37,0.59,0.43c0.13,0.06,0.28,0.09,0.45,0.09C122.54,70.64,122.74,70.6,123,70.54
			z"/>
	</g>
	<path class="st2" d="M115.75,56.97H92V32.35c0,0-7.07-11.28-15.36-0.64c0,15.04,0,25.26,0,25.26H53.32L84.21,4.19l31.54,53.07"/>
</g>
</svg>
